# xmcd CD database file generated by OrangeCD 6.0
#
# Track frame offsets:
#	150
#	15754
#	42466
#	62444
#	80524
#	101600
#	123798
#	143974
#	160532
#	172936
#	196043
#	213578
#	233551
#	253261
#	272628
#	293178
#	310249
#	331299
#
# Disc length: 4701 seconds
#
# Revision: 0
# Processed by: cddbd v1.5.2PL0 Copyright (c) Steve Scherf et al.
# Submitted via: OrangeCD 6.0
#
DISCID=ed125b12
DTITLE=Bonnie Raitt - Bonnie Raitt 7
DYEAR=1900
DGENRE=
TTITLE0=You got it
TTITLE1=You remain
TTITLE2=There is a danger in lovin' so
TTITLE3=Slow ride
TTITLE4=Shake a little
TTITLE5=River of tears
TTITLE6=Real man
TTITLE7=Let me in 
TTITLE8=Papa come quick
TTITLE9=One part be my lover
TTITLE10=No way to treat a lady
TTITLE11=No business
TTITLE12=Thing called love (with Melissa Etheridge)
TTITLE13=Meet me half way
TTITLE14=Feels like rain (with Buddy Guy)
TTITLE15=Highway 61 Revisited Live (with B.Springsteen and Jackson Browne)
TTITLE16=Rainbow Cadillac (with Bruce Hornsby)
TTITLE17=Someone to love (with Charles Brown)
EXTD=
EXTT0=
EXTT1=
EXTT2=
EXTT3=
EXTT4=
EXTT5=
EXTT6=
EXTT7=
EXTT8=
EXTT9=
EXTT10=
EXTT11=
EXTT12=
EXTT13=
EXTT14=
EXTT15=
EXTT16=
EXTT17=
PLAYORDER=
